<?xml version="1.0" encoding="utf-8"?>
<!-- Generator: Adobe Adobe Illustrator 24.2.0, SVG Export Plug-In . SVG Version: 6.00 Build 0)  -->
<svg version="1.1" id="Layer_1" xmlns="http://www.w3.org/2000/svg" xmlns:xlink="http://www.w3.org/1999/xlink" x="0px" y="0px"
	 width="734.9px" height="92.74px" viewBox="0 0 734.9 92.74" style="enable-background:new 0 0 734.9 92.74;" xml:space="preserve"
	>
<style type="text/css">
	.st0{fill:#FF3F0D;}
</style>
<g>
	<path class="st0" d="M39.77,28.84c-0.01,0-0.01-0.01-0.02-0.01c-0.05-0.02-0.1-0.04-0.15-0.07c-0.05-0.02-0.1-0.05-0.15-0.07
		c-0.02,0-0.04-0.01-0.05-0.02c-0.09-0.03-0.16-0.06-0.25-0.09c-0.01,0-0.03,0-0.05-0.01c-0.19-0.05-0.39-0.1-0.59-0.12
		c-0.11-0.01-0.23-0.01-0.34-0.01c-1.76,0-3.24,1.48-3.25,3.31c0,0.25,0.03,0.51,0.09,0.75c0.34,1.47,1.64,2.57,3.16,2.57
		c1.26,0,2.35-0.7,2.91-1.74c0.26-0.47,0.41-1.01,0.41-1.58C41.48,30.49,40.79,29.4,39.77,28.84"/>
	<path class="st0" d="M169.86,70.76c-13.32,0-29.55-0.58-29.55-20.79v-1.37h25.37v9.14h4.75v-8.75c-4.18-1.47-9.03-2.82-13.89-4.47
		c-7.77-2.72-15.16-6.22-15.45-17.01c-0.3-14.39,10.01-20.22,27.11-20.22c22.25,0,27.31,8.46,27.31,18.47v2.33h-25.08v-7.58h-4.75
		v7.58c3.2,0.98,7.87,2.34,13.11,3.89c8.94,2.52,17.99,6.32,17.99,17.98C196.79,65.8,185.21,70.76,169.86,70.76"/>
	<path class="st0" d="M229.13,35.77h-4.96v20.32h4.96V35.77z M250.41,62.79c-2.63,4.66-7.11,7.58-13.61,7.58
		c-6.22,0-10.31-2.04-12.63-5.15v19.63h-23.23v-62h23.03v4.86c1.85-3.01,5.93-5.83,13.12-5.74c4.57,0,7.88,1.37,10.5,3.9
		c4.27,4.08,5.25,9.9,5.25,19.82C252.84,52.77,252.64,58.7,250.41,62.79"/>
	<path class="st0" d="M285.27,31.59h-4.96v8.75h4.96V31.59z M299.56,67.26c-5.74,2.91-12.15,3.21-17.11,3.21
		c-21.09,0-26.04-9.72-26.04-24.49c0-16.52,7.1-24.58,26.91-24.58c11.86,0,18.96,3,22.84,9.23c1.55,2.62,2.91,6.12,2.91,14.38v3.4
		h-28.76v10.79h4.95v-6.02h23.81C309.08,58.99,305,64.54,299.56,67.26"/>
	<path class="st0" d="M341.52,31.59h-4.96v8.75h4.96V31.59z M355.8,67.26c-5.73,2.91-12.14,3.21-17.1,3.21
		c-21.09,0-26.05-9.72-26.05-24.49c0-16.52,7.09-24.58,26.92-24.58c11.86,0,18.95,3,22.84,9.23c1.56,2.62,2.92,6.12,2.92,14.38v3.4
		h-28.77v10.79h4.96v-6.02h23.81C365.33,58.99,361.25,64.54,355.8,67.26"/>
	<path class="st0" d="M397.17,35.67h-4.85v20.02h4.85V35.67z M397.17,69v-4.37c-2.63,2.92-6.7,5.34-12.73,5.34
		c-3.79,0-7.19-0.67-10.4-3.78c-4.36-4.18-5.04-11.76-5.14-19.24c-0.1-8.84,0.68-14.87,3.11-18.66c2.91-4.57,7.09-6.42,12.73-6.42
		c5.83,0,9.71,1.75,12.44,4.67V9.05h23.33V69H397.17z"/>
	<path class="st0" d="M484.12,21h-4.77v37.03h4.77V21z M480.91,70.75c-10.1,0-16.23-2.43-20.6-6.42c-5.63-5.15-6.41-13.8-6.41-25.36
		c0-24.58,5.93-31.78,27.9-31.78c21.95,0,27.89,7.2,27.89,31.78c0,6.12-0.39,14.38-2.34,19.05h5.35v12.73H480.91z"/>
	<path class="st0" d="M543.45,69v-4.57c-3.4,3.41-7.77,5.74-13.79,5.54c-5.63-0.1-10.1-2.91-12.24-6.71
		c-1.18-2.03-2.34-5.24-2.34-11.07V22.84h23.52v33.04h4.85V22.84h23.34V69H543.45z"/>
	<path class="st0" d="M599.39,31.59h-4.96v8.75h4.96V31.59z M613.68,67.26c-5.73,2.91-12.14,3.21-17.1,3.21
		c-21.08,0-26.04-9.72-26.04-24.49c0-16.52,7.09-24.58,26.91-24.58c11.85,0,18.95,3,22.83,9.23c1.55,2.62,2.92,6.12,2.92,14.38v3.4
		h-28.77v10.79h4.95v-6.02h23.81C623.21,58.99,619.13,64.54,613.68,67.26"/>
	<path class="st0" d="M655.63,31.59h-4.96v8.75h4.96V31.59z M669.92,67.26c-5.74,2.91-12.15,3.21-17.11,3.21
		c-21.08,0-26.04-9.72-26.04-24.49c0-16.52,7.1-24.58,26.92-24.58c11.85,0,18.95,3,22.84,9.23c1.55,2.62,2.91,6.12,2.91,14.38v3.4
		h-28.77v10.79h4.96v-6.02h23.81C679.45,58.99,675.37,64.54,669.92,67.26"/>
	<path class="st0" d="M711.38,69V35.77h-4.95V69H683.2V22.84h22.54v4.47c1.85-2.62,6.41-5.93,13.9-5.93
		c9.81-0.1,15.26,6.32,15.26,15.75V69H711.38z"/>
	<path class="st0" d="M50.34,28.42L50.34,28.42c-0.11,0-0.22,0-0.33,0.01H50c-0.05,0-0.1,0.02-0.14,0.02
		c-1.61,0.23-2.83,1.61-2.83,3.27c0,1.83,1.48,3.31,3.31,3.31c0.61,0,1.18-0.17,1.67-0.48c0.22-0.14,0.43-0.3,0.61-0.49
		c0.59-0.6,0.96-1.44,0.96-2.34C53.58,29.91,52.1,28.42,50.34,28.42"/>
	<path class="st0" d="M62.17,28.42L62.17,28.42c-0.09,0-0.18,0-0.27,0.01c-0.02,0-0.05,0-0.07,0c-0.01,0-0.04,0-0.05,0.01
		c-1.31,0.16-2.39,1.08-2.78,2.31c-0.09,0.3-0.15,0.64-0.15,0.98c0,1.83,1.49,3.31,3.32,3.31c0.17,0,0.33-0.01,0.49-0.03
		c1.33-0.2,2.4-1.19,2.72-2.48c0.06-0.26,0.1-0.53,0.1-0.8C65.48,29.91,64,28.42,62.17,28.42"/>
	<path class="st0" d="M78.13,63.55c0-0.01-0.01-0.01-0.01-0.02c-0.08-0.09-0.15-0.19-0.22-0.3c-0.14-0.22-0.25-0.45-0.34-0.61
		c-3.63-7.79-7.54-15.47-11.04-23.27c-0.11-0.3-0.18-0.55-0.46-0.63c-0.1-0.03-0.22-0.04-0.37-0.03h-1.69h-0.21l0.07,0.13l0.02,0.05
		c0.2,0.39,0.4,0.81,0.6,1.22c0.25,0.53,0.51,1.06,0.77,1.57c0.29,0.65,0.47,1.27,0.58,1.83c0.06,0.34,0.09,0.67,0.09,0.98
		c0,1.34-0.55,2.32-1.42,2.8c-0.42,0.23-0.91,0.36-1.45,0.37c-0.3,0-0.61-0.04-0.94-0.12c-1.21-0.31-2.56-1.17-3.86-2.75
		c-0.71-0.84-1.1-1.42-1.76-2.39c-0.38-0.64-0.77-1.31-1.15-1.99c-0.2-0.35-0.4-0.7-0.6-1.06c-0.18-0.39-0.4-0.67-0.95-0.65h-1.57
		h-0.2l0.08,0.19c0.14,0.29,0.28,0.59,0.43,0.89c0.28,0.58,0.58,1.16,0.88,1.71c0.63,1.39,0.91,2.53,0.91,3.46
		c-0.01,2.15-1.42,3.13-3.22,3.14c-1.44,0-3.1-0.67-4.38-1.93c-0.44-0.42-0.83-0.92-1.15-1.48c-0.19-0.31-0.37-0.63-0.55-0.95
		c-0.45-0.76-0.89-1.53-1.33-2.3c-0.4-0.7-0.79-1.4-1.17-2.08c-0.34-0.64-0.83-0.67-1.34-0.72c-0.36,0-0.74,0.06-1.12,0.06h-0.21h0
		h0l0.07,0.14l0.02,0.05c3.98,8.11,8,16.31,12.03,24.52c0.98,2,1.95,3.99,2.92,5.98h0.01v0c0.19,0.4,0.29,0.71,0.29,0.92
		c0,0.11-0.03,0.2-0.07,0.27c-0.1,0.17-0.3,0.24-0.71,0.25c-0.05,0-0.11,0-0.17,0c-4.1-0.06-8.02-0.67-11.69-1.76
		c-14.49-4.26-24.8-15.77-24.8-29.13C17.78,22.91,34.52,8.97,55.22,8.97c20.62,0,37.43,13.94,37.46,30.96
		c0,2.85-0.44,5.59-1.27,8.18c-1.97,6.1-6.15,11.38-12.07,15.39c-0.29,0.23-0.5,0.31-0.68,0.31C78.46,63.82,78.29,63.71,78.13,63.55
		C78.14,63.55,78.13,63.55,78.13,63.55 M84.27,74.46c16.29-7.04,27.33-19.82,27.33-34.39C111.59,17.97,86.48,0,55.8,0
		C25.12,0,0,17.97,0,40.06c0,22.02,25.12,39.99,55.8,39.99c0.85,0,1.76,0,2.67-0.06c1.43,0.03,1.48,0.01,2.15,1.3
		c0.66,1.3,1.44,2.92,1.83,3.77c1.15,2.28,3.49,7.62,11.49,7.68c5.99-0.13,11.84-0.07,17.83-0.13c0.83,0,1.26-0.45,1.26-0.93
		c0-0.22-0.1-0.44-0.27-0.58c-1.88-1.44-3.63-3.05-4.58-5.04c-1.17-2.41-3-6.24-4.43-9.23c-0.31-0.56-0.44-0.98-0.44-1.3
		C83.31,75.03,83.61,74.73,84.27,74.46"/>
</g>
</svg>
